HIERARCHY
ROOT Hips
{
	OFFSET 0.000000 0.000000 0.000000
	CHANNELS 6 Xposition Yposition Zposition Xrotation Yrotation Zrotation
	JOINT LeftUpLeg_virtual
	{
		OFFSET 0.000000 0.000000 0.000000
		CHANNELS 3 Xrotation Yrotation Zrotation
		JOINT LeftUpLeg
		{
			OFFSET 11.394100 -6.187798 -0.413800
			CHANNELS 3 Xrotation Yrotation Zrotation
			JOINT LeftLeg
			{
				OFFSET 0.430247 -32.302673 3.732800
				CHANNELS 3 Xrotation Yrotation Zrotation
				JOINT LeftFoot
				{
					OFFSET -0.430247 -48.264931 -6.423300
					CHANNELS 3 Xrotation Yrotation Zrotation
					JOINT LeftToeBase
					{
						OFFSET 4.230900 -16.068199 23.438400
						CHANNELS 3 Xrotation Yrotation Zrotation
						JOINT LeftToe_End
						{
							OFFSET 4.510700 0.695400 19.974600
							CHANNELS 3 Xrotation Yrotation Zrotation
							End Site
							{
								OFFSET 0 0 0
							}
						}
					}
				}
			}
		}
	}
	JOINT RightUpLeg_virtual
	{
		OFFSET 0.000000 0.000000 0.000000
		CHANNELS 3 Xrotation Yrotation Zrotation
		JOINT RightUpLeg
		{
			OFFSET -11.333700 -6.187798 -0.413800
			CHANNELS 3 Xrotation Yrotation Zrotation
			JOINT RightLeg
			{
				OFFSET -0.430392 -32.302628 3.733000
				CHANNELS 3 Xrotation Yrotation Zrotation
				JOINT RightFoot
				{
					OFFSET 0.430392 -48.264973 -6.423500
					CHANNELS 3 Xrotation Yrotation Zrotation
					JOINT RightToeBase
					{
						OFFSET -4.230900 -16.068199 23.438400
						CHANNELS 3 Xrotation Yrotation Zrotation
						JOINT RightToe_End
						{
							OFFSET -4.510700 0.695400 19.974600
							CHANNELS 3 Xrotation Yrotation Zrotation
							End Site
							{
								OFFSET 0 0 0
							}
						}
					}
				}
			}
		}
	}
	JOINT Spine_virtual
	{
		OFFSET 0.000000 0.000000 0.000000
		CHANNELS 3 Xrotation Yrotation Zrotation
		JOINT Spine
		{
			OFFSET -0.002400 12.777504 0.315300
			CHANNELS 3 Xrotation Yrotation Zrotation
			JOINT Spine1
			{
				OFFSET -0.002067 5.816869 0.032633
				CHANNELS 3 Xrotation Yrotation Zrotation
				JOINT Spine1_split
				{
					OFFSET -0.002067 5.816869 0.032633
					CHANNELS 3 Xrotation Yrotation Zrotation
					JOINT Spine2
					{
						OFFSET -0.002067 5.816869 0.032633
						CHANNELS 3 Xrotation Yrotation Zrotation
						JOINT Neck_virtual
						{
							OFFSET 0.000000 0.000000 0.000000
							CHANNELS 3 Xrotation Yrotation Zrotation
							JOINT Neck
							{
								OFFSET -0.003700 21.199493 -0.826900
								CHANNELS 3 Xrotation Yrotation Zrotation
								JOINT Head
								{
									OFFSET 0.000000 20.442200 4.834800
									CHANNELS 3 Xrotation Yrotation Zrotation
									JOINT HeadTop_End
									{
										OFFSET 0.000000 34.668396 4.968400
										CHANNELS 3 Xrotation Yrotation Zrotation
										End Site
										{
											OFFSET 0 0 0
										}
									}
								}
							}
						}
						JOINT LeftShoulder_virtual
						{
							OFFSET 0.000000 0.000000 0.000000
							CHANNELS 3 Xrotation Yrotation Zrotation
							JOINT LeftShoulder
							{
								OFFSET 3.288150 8.794197 -1.372250
								CHANNELS 3 Xrotation Yrotation Zrotation
								JOINT LeftShoulder_split
								{
									OFFSET 3.288150 8.794197 -1.372250
									CHANNELS 3 Xrotation Yrotation Zrotation
									JOINT LeftArm
									{
										OFFSET 11.953299 -2.279007 -0.146200
										CHANNELS 3 Xrotation Yrotation Zrotation
										JOINT LeftForeArm
										{
											OFFSET 18.448900 0.000000 0.000000
											CHANNELS 3 Xrotation Yrotation Zrotation
											JOINT LeftHand
											{
												OFFSET 29.527798 0.000000 0.000000
												CHANNELS 3 Xrotation Yrotation Zrotation
												End Site
												{
													OFFSET 0 0 0
												}
											}
										}
									}
								}
							}
						}
						JOINT RightShoulder_virtual
						{
							OFFSET 0.000000 0.000000 0.000000
							CHANNELS 3 Xrotation Yrotation Zrotation
							JOINT RightShoulder
							{
								OFFSET -3.249400 8.794197 -1.372250
								CHANNELS 3 Xrotation Yrotation Zrotation
								JOINT RightShoulder_split
								{
									OFFSET -3.249400 8.794197 -1.372250
									CHANNELS 3 Xrotation Yrotation Zrotation
									JOINT RightArm
									{
										OFFSET -11.953299 -2.279007 -0.146200
										CHANNELS 3 Xrotation Yrotation Zrotation
										JOINT RightForeArm
										{
											OFFSET -18.448900 0.000000 0.000000
											CHANNELS 3 Xrotation Yrotation Zrotation
											JOINT RightHand
											{
												OFFSET -29.527802 0.000000 0.000000
												CHANNELS 3 Xrotation Yrotation Zrotation
												End Site
												{
													OFFSET 0 0 0
												}
											}
										}
									}
								}
							}
						}
					}
				}
			}
		}
	}
}
MOTION
Frames: 10
Frame Time: 0.03333333
-3.611607 87.164902 0.938549 0.000000 0.000000 0.000000 -4.768112 -8.326474 5.592812 -74.386935 6.062662 6.749609 53.641075 5.876073 -2.377532 15.929681 -1.902223 2.826320 -1.043372 0.402662 0.553303 0.000000 0.000000 0.000000 -4.842278 -9.531269 5.407188 -20.173353 -8.425564 -4.458609 52.725263 6.112605 -1.930092 -27.641506 2.424367 -9.514389 -3.855650 -0.324775 -1.137270 0.000000 0.000000 0.000000 -3.968180 -7.309966 4.529246 13.479255 0.510441 -3.748530 2.621568 0.177254 -0.964964 0.520358 -0.877300 0.307621 0.000000 0.000000 0.000000 2.696629 0.147133 -0.783591 1.890642 -0.555201 0.938016 23.137781 5.281055 -0.409387 0.000000 0.000000 0.000000 2.588050 0.207274 -0.782667 1.448137 1.748316 -9.224066 0.492150 -1.700218 -0.922439 13.963457 -25.685939 -53.931198 0.478102 -33.217276 0.223931 0.000000 0.000000 0.000000 2.667578 -0.141102 -0.989329 0.055375 5.879359 18.478510 -0.108621 3.647680 -1.776062 14.674914 19.897502 48.156116 1.293681 40.561457 -0.240167 0.000000 0.000000 0.000000 
-3.769012 87.570930 0.230782 0.000000 0.000000 0.000000 -3.924749 -8.126481 6.092859 -74.455646 5.441003 5.753433 46.214091 6.260879 -1.644427 17.645374 -0.229918 2.357658 2.088330 0.731161 -1.245587 0.000000 0.000000 0.000000 -4.350971 -8.613885 5.909111 -20.473092 -8.508008 -4.087553 51.998223 5.126335 -2.072599 -27.761710 1.562422 -10.723907 -3.768790 -0.265014 -0.896338 0.000000 0.000000 0.000000 -3.476956 -6.321549 5.187354 13.823693 0.431056 -4.228353 2.871286 0.223010 -1.031788 0.756454 -0.992040 0.648677 0.000000 0.000000 0.000000 2.835934 0.188838 -0.835980 2.195811 -0.590231 0.817289 22.991675 5.276654 -0.326566 0.000000 0.000000 0.000000 2.728695 0.282738 -0.869121 1.584578 1.818888 -9.304121 0.652027 -1.981470 -0.735318 14.729127 -26.715812 -54.125431 0.226426 -33.219356 -0.102120 0.000000 0.000000 0.000000 2.800076 -0.102959 -1.084336 -0.018959 6.618224 18.661187 -0.044133 3.779443 -1.465475 14.516215 19.222702 47.697212 1.038818 42.314641 -0.100815 0.000000 0.000000 0.000000 
-3.952353 88.014801 -0.763855 0.000000 0.000000 0.000000 -3.044276 -7.597698 6.222258 -74.535122 5.041591 5.513752 41.127216 5.692376 -0.816250 18.404314 0.901865 1.637450 4.037115 1.005757 -2.849490 0.000000 0.000000 0.000000 -3.693333 -7.344496 6.083189 -21.429611 -8.874454 -3.748490 51.419805 4.148118 -2.120850 -27.439206 0.900651 -11.899632 -3.709807 -0.226212 -0.611860 0.000000 0.000000 0.000000 -2.794949 -5.286198 5.529184 14.129956 0.288040 -4.441109 3.086263 0.219305 -1.063342 1.045410 -1.049763 0.783335 0.000000 0.000000 0.000000 2.912916 0.167631 -0.870604 2.413861 -0.608631 0.788776 22.652730 5.291637 -0.164398 0.000000 0.000000 0.000000 2.819474 0.293567 -0.937489 1.717285 1.772992 -9.281460 0.868379 -2.276991 -0.623481 15.200058 -27.523692 -54.315823 -0.083134 -33.209059 -0.515855 0.000000 0.000000 0.000000 2.903175 -0.110603 -1.139797 -0.108459 7.248531 18.931753 0.211400 3.795304 -1.317598 13.948886 18.578275 47.190832 0.793202 44.157566 0.049920 0.000000 0.000000 0.000000 
-4.149906 88.658569 -1.845024 0.000000 0.000000 0.000000 -1.927092 -6.403195 6.124474 -74.093612 5.251718 5.696172 38.721558 4.465930 -0.153569 17.208040 1.267148 1.632549 3.709490 1.062750 -3.297056 0.000000 0.000000 0.000000 -2.823628 -5.973232 6.040216 -23.095678 -9.434603 -3.556717 50.594316 3.470681 -2.147240 -26.051067 0.579527 -12.377612 -3.880359 -0.275149 -0.381102 0.000000 0.000000 0.000000 -1.650577 -4.183625 5.629177 14.251334 0.041364 -4.358956 3.236149 0.143828 -1.062075 1.174981 -1.211304 0.697682 0.000000 0.000000 0.000000 2.952661 0.061395 -0.868012 2.485715 -0.600274 0.836237 22.181208 5.337459 0.023575 0.000000 0.000000 0.000000 2.867608 0.213485 -0.964429 1.835405 1.561147 -9.128144 1.205455 -2.555606 -0.500112 15.376402 -28.178847 -54.454117 -0.329276 -33.179369 -0.904550 0.000000 0.000000 0.000000 2.981063 -0.176207 -1.131465 -0.200061 7.722287 19.328213 0.542710 3.668205 -1.298959 13.186391 18.091423 46.542371 0.655261 45.512993 0.140835 0.000000 0.000000 0.000000 
-4.389505 89.501709 -2.817917 0.000000 0.000000 0.000000 -0.553284 -4.496125 5.839567 -73.061775 5.946643 5.761463 39.130103 2.987830 0.137894 14.432820 0.939067 2.533596 2.238544 0.889358 -3.058285 0.000000 0.000000 0.000000 -1.565614 -4.926471 5.887723 -25.360725 -10.005972 -3.573218 49.101178 3.184035 -2.164830 -23.486669 0.636747 -11.893050 -4.252825 -0.411641 -0.285937 0.000000 0.000000 0.000000 -0.015985 -3.161783 5.499249 14.115283 -0.302207 -4.054116 3.294096 -0.012257 -1.024298 1.150672 -1.465943 0.443470 0.000000 0.000000 0.000000 2.994815 -0.113824 -0.812347 2.451252 -0.624992 0.925056 21.703522 5.367164 0.138565 0.000000 0.000000 0.000000 2.889079 0.050014 -0.930507 1.936480 1.214458 -8.929531 1.613748 -2.788921 -0.417634 15.378892 -28.749373 -54.510558 -0.416568 -33.232866 -1.138334 0.000000 0.000000 0.000000 3.016334 -0.319791 -1.040755 -0.271399 8.017940 19.814883 0.863054 3.484793 -1.470463 12.482952 17.727012 45.919693 0.701577 46.026763 0.113270 0.000000 0.000000 0.000000 
-4.623550 90.460533 -3.623211 0.000000 0.000000 0.000000 1.141144 -2.517626 5.495118 -71.129160 6.861262 5.527395 41.807547 1.694624 0.035771 11.455535 0.422782 3.876801 0.154079 0.553308 -2.089849 0.000000 0.000000 0.000000 0.125361 -4.379754 5.702643 -27.768197 -10.514742 -3.698273 46.787619 3.251997 -2.151078 -20.273994 1.119935 -10.697414 -4.530216 -0.597898 -0.374003 0.000000 0.000000 0.000000 2.070549 -2.420862 5.211357 13.713098 -0.739923 -3.592908 3.243312 -0.238358 -0.957009 0.993106 -1.408800 0.098988 0.000000 0.000000 0.000000 3.045297 -0.347676 -0.716306 2.391112 -0.635293 1.017811 21.363134 5.370433 0.110156 0.000000 0.000000 0.000000 2.887600 -0.176939 -0.842385 2.023661 0.855025 -8.718356 1.952531 -2.995522 -0.353025 15.440153 -29.283050 -54.428224 -0.260190 -33.442382 -1.122690 0.000000 0.000000 0.000000 3.033773 -0.522866 -0.889201 -0.312673 8.107825 20.308702 1.021302 3.370533 -1.802691 12.184527 17.363674 45.500046 0.938028 45.872001 -0.049697 0.000000 0.000000 0.000000 
-4.820773 91.362206 -4.305729 0.000000 0.000000 0.000000 3.089036 -0.910137 5.147387 -68.342388 7.720756 4.894028 45.352033 0.866825 -0.358074 9.682249 0.344350 4.677399 -1.468272 0.182887 -0.824673 0.000000 0.000000 0.000000 2.088369 -4.271393 5.483773 -29.958753 -10.868330 -3.856611 44.397138 3.339590 -2.063425 -17.333458 1.818878 -9.415218 -4.488882 -0.758723 -0.720081 0.000000 0.000000 0.000000 4.399509 -2.000620 4.898775 13.171268 -1.243263 -3.054129 3.139795 -0.478561 -0.883267 0.723592 -1.254141 -0.072524 0.000000 0.000000 0.000000 3.105275 -0.599600 -0.600979 2.370710 -0.614643 1.015973 21.242407 5.302380 -0.070401 0.000000 0.000000 0.000000 2.850193 -0.427660 -0.726866 2.094028 0.533146 -8.584744 2.123095 -3.144769 -0.281951 15.786348 -29.736919 -54.181060 0.057710 -33.825784 -0.894471 0.000000 0.000000 0.000000 3.009378 -0.755004 -0.715787 -0.310768 8.058692 20.734217 1.008245 3.354769 -2.195799 12.409055 16.782994 45.483172 1.262062 45.391764 -0.288503 0.000000 0.000000 0.000000 
-4.921293 91.879379 -4.909752 0.000000 0.000000 0.000000 4.944001 -0.161978 4.909362 -65.145648 8.323576 4.071434 48.379398 0.591150 -0.967359 9.412596 0.926064 4.646776 -2.146643 -0.041546 0.401504 0.000000 0.000000 0.000000 4.207501 -4.319859 5.330672 -31.917819 -11.113757 -4.095233 42.653729 3.157316 -1.844203 -15.193814 2.368566 -8.364461 -4.277456 -0.829653 -1.327958 0.000000 0.000000 0.000000 6.499587 -1.836522 4.649239 12.773942 -1.747111 -2.511069 3.018990 -0.679739 -0.819531 0.602056 -0.760267 -0.128181 0.000000 0.000000 0.000000 3.171246 -0.816933 -0.508809 2.439954 -0.581184 0.899361 21.313858 5.095417 -0.386540 0.000000 0.000000 0.000000 2.816870 -0.658201 -0.628595 2.153549 0.289368 -8.654618 2.032215 -3.173834 -0.328052 16.478521 -30.002784 -53.765921 0.411267 -34.142237 -0.548746 0.000000 0.000000 0.000000 2.981990 -0.976980 -0.560794 -0.273218 7.915779 21.008345 0.867367 3.427007 -2.595602 13.124950 15.948157 45.956569 1.569723 44.922376 -0.537755 0.000000 0.000000 0.000000 
-5.005936 91.997398 -5.617500 0.000000 0.000000 0.000000 6.537422 0.013916 4.908680 -62.001158 8.668193 3.155946 49.594287 0.798240 -1.513491 10.262917 1.866251 3.606168 -1.550957 -0.037361 1.270090 0.000000 0.000000 0.000000 5.993982 -4.031908 5.254152 -33.818852 -11.209940 -4.450480 42.161081 2.684361 -1.579045 -13.922934 2.512886 -7.500422 -4.143843 -0.823707 -2.063674 0.000000 0.000000 0.000000 8.162603 -1.394168 4.508187 12.740682 -2.195951 -1.986841 2.937389 -0.798957 -0.785808 0.516490 -0.112667 -0.054428 0.000000 0.000000 0.000000 3.218260 -0.960943 -0.479990 2.585238 -0.474016 0.650865 21.433793 4.680780 -0.701580 0.000000 0.000000 0.000000 2.817099 -0.827395 -0.574276 2.179741 0.090178 -8.938285 1.764834 -3.013295 -0.335813 17.350374 -30.058310 -53.259025 0.656239 -34.261547 -0.227481 0.000000 0.000000 0.000000 2.974899 -1.131815 -0.478149 -0.224883 7.742958 21.127640 0.584214 3.474554 -2.892972 14.120083 15.015122 46.817989 1.764716 44.496063 -0.738768 0.000000 0.000000 0.000000 
-5.109664 91.798553 -6.366653 0.000000 0.000000 0.000000 7.625227 0.161026 5.170176 -60.073959 8.809883 2.359697 48.752654 1.112289 -1.645597 11.656130 2.464498 1.685803 0.276700 0.156976 1.500438 0.000000 0.000000 0.000000 7.406287 -3.128592 5.326267 -35.890069 -11.089028 -4.957760 42.790035 1.874281 -1.324416 -13.291178 2.128793 -6.868074 -4.308026 -0.740223 -2.699282 0.000000 0.000000 0.000000 9.287930 -0.356584 4.537965 13.145121 -2.509772 -1.518922 2.946683 -0.806301 -0.775399 0.509020 0.202676 0.022471 0.000000 0.000000 0.000000 3.256777 -0.987588 -0.513386 2.766330 -0.372812 0.271280 21.437517 3.944226 -0.868788 0.000000 0.000000 0.000000 2.884517 -0.902456 -0.566089 2.157676 -0.122717 -9.460898 1.396847 -2.684455 -0.379020 17.971461 -30.009768 -52.793503 0.657164 -34.203197 -0.060057 0.000000 0.000000 0.000000 3.003184 -1.196596 -0.468966 -0.174044 7.579643 21.128461 0.342287 3.341018 -3.031789 15.039759 14.294121 47.890155 1.763463 43.684080 -0.808284 0.000000 0.000000 0.000000 
